<?xml version="1.0" encoding="UTF-8"?>
<svg xmlns="http://www.w3.org/2000/svg" viewBox="0 0 512 512" width="512" height="512">
  <defs>
    <linearGradient id="stack-gradient" x1="0" y1="0" x2="1" y2="1">
      <stop offset="0%" stop-color="#00e4cb" />
      <stop offset="100%" stop-color="#0a84ff" />
    </linearGradient>
  </defs>
  <rect width="512" height="512" rx="112" fill="#0d0f11" />
  <g fill="url(#stack-gradient)">
    <path d="M96 320 h320 a24 24 0 0 1 24 24 v40 a24 24 0 0 1 -24 24 H96 a24 24 0 0 1 -24 -24 v-40 a24 24 0 0 1 24 -24 z" />
    <path d="M136 224 h240 a24 24 0 0 1 24 24 v40 a24 24 0 0 1 -24 24 H136 a24 24 0 0 1 -24 -24 v-40 a24 24 0 0 1 24 -24 z" />
    <path d="M176 128 h160 a24 24 0 0 1 24 24 v40 a24 24 0 0 1 -24 24 H176 a24 24 0 0 1 -24 -24 v-40 a24 24 0 0 1 24 -24 z" />
  </g>
</svg>
