<?xml version="1.0" encoding="UTF-8"?>
<svg xmlns="http://www.w3.org/2000/svg" width="1200" height="400" viewBox="0 0 1200 400">
  <rect width="1200" height="400" fill="#0b0d0e" />
  <defs>
    <linearGradient id="stack-gradient" x1="0" y1="0" x2="1" y2="1">
      <stop offset="0%" stop-color="#00e4cb" />
      <stop offset="100%" stop-color="#0a84ff" />
    </linearGradient>
  </defs>
  <g transform="translate(80,40) scale(0.625)" fill="url(#stack-gradient)">
    <path d="M96 320 h320 a24 24 0 0 1 24 24 v40 a24 24 0 0 1 -24 24 H96 a24 24 0 0 1 -24 -24 v-40 a24 24 0 0 1 24 -24 z" />
    <path d="M136 224 h240 a24 24 0 0 1 24 24 v40 a24 24 0 0 1 -24 24 H136 a24 24 0 0 1 -24 -24 v-40 a24 24 0 0 1 24 -24 z" />
    <path d="M176 128 h160 a24 24 0 0 1 24 24 v40 a24 24 0 0 1 -24 24 H176 a24 24 0 0 1 -24 -24 v-40 a24 24 0 0 1 24 -24 z" />
  </g>
  <text x="440" y="280" font-family="Arial, Helvetica, sans-serif" font-size="160" font-weight="700" fill="#f5f5f5">EmuStack</text>
</svg>
